<svg id="Resurser" xmlns="http://www.w3.org/2000/svg" viewBox="0 0 403 337"><defs><style>.cls-1{fill:#1e90ff;}.cls-2{fill:#032040;stroke:#000;stroke-miterlimit:10;}.cls-3{fill:#fff;}.cls-4{opacity:0.3;}</style></defs><g id="Layer_44" data-name="Layer 44"><polygon class="cls-1" points="381.84 26.96 321.02 316.58 25.8 316.58 86.62 26.96 381.84 26.96"/><polygon class="cls-2" points="98 145.36 104.2 74.58 122.4 48.29 135.88 55.99 158.9 94.58 185.93 104.27 227.34 103.33 254.58 80.58 277.55 63.19 303.23 59.91 307.22 75.25 303.23 137.25 282.67 208.29 243.69 256.21 207.11 294.72 190.67 294.72 155.13 248.51 104.2 189.25 98 145.36"/><path class="cls-3" d="M323,159c-2.77-11.86-5.64-10.76-9.24-24.64-4-15.48-3.65-29.11-3.08-46.21.66-20,2.63-25.09,1-28a5.39,5.39,0,0,0-1-1.26c-10.3-10.44-51.6,2.51-72.39,24.64-2.92,3.11-7.5,8.58-15.4,10.78-6.31,1.74-8.22-.41-20,0S190,97,182.83,95.84c-8-1.29-13.53-5.23-17-7.7-6.37-4.62-9.91-9.45-16.94-20-16.05-24.16-16.38-27.24-20-27.72-10.35-1.37-23.55,21.38-29.26,40s-1,23.69-7.7,49.29c-4.44,16.83-7,16.66-9.24,29.26-2.1,11.86-5.1,30.48,3.08,46.21,10.36,19.94,28.91,13.21,53.9,40,3.67,3.93,8.61,10.32,18.48,23.1,11.35,14.68,20.6,27.6,32.35,30.8a43.9,43.9,0,0,0,23.1,0c11.55-3.21,18.8-16.75,29.26-30.8a200.67,200.67,0,0,1,20-23.1c27.3-26.58,45.5-20.41,57-40C330.05,187.82,324.44,165.24,323,159ZM113.52,145.13c-5.58-.35-10-21.66-9.24-40a87.44,87.44,0,0,1,6.16-29.27c1.66-4.17,9.59-24,16.94-23.1,3.45.4,3.28,5,10.78,16.94,5.52,8.8,7.59,9.47,13.86,20a44.11,44.11,0,0,1,6.16,15.41c.73,4,1.17,6.49,0,9.24-1.43,3.28-4.37,4.83-15.4,9.24-13.4,5.33-13.09,4.65-15.4,6.16C117.37,136.23,117.18,145.36,113.52,145.13ZM172,208.28c-2.34,1.61-7.19-6-21.56-12.33a119.73,119.73,0,0,0-12.32-4.62c-7.44-2.26-10.78-2.32-10.78-3.08,0-1.44,12-3.63,24.64-1.54,6.36,1,11.34,1.94,15.4,6.16C172.57,198.19,174.25,206.75,172,208.28Zm46.39,65.28c-.06.46-.18.94-.18.94a3.58,3.58,0,0,1-.31,1c-.75.36-5.76-10.7-7.39-10.21-1,.29-1.22,5.05,0,9.24.54,1.88,1.88,5.39,1.54,7.7a6.23,6.23,0,0,1-1.11,2.67,4.38,4.38,0,0,1-.77.77c-3.82,3.08-5.14,5.36-7.36,5.8-3.07.62-6.07-2.63-10.78-7.7-2.45-2.65-3.67-4-4.62-6.16-.45-1-3.18-7.59,0-12.32,2.72-4.08,8.14-4.36,13.86-4.62,5.47-.26,10.38-.51,13.86,3.08S218.53,273,218.43,273.56Zm49.26-82.44c-8.13,3.37-7.24,6.19-13.79,8.58-7.16,2.6-10.33,0-15.74,3.42-3.86,2.4-4.94,5.49-5.91,5.14-1.25-.45-.71-5.81,2-10.29,3-5,7.84-7.54,9.84-8.56,7.16-3.65,14.13-3.54,21.67-3.44,4.67.07,11.72.59,11.82,1.71C277.61,188.56,273.39,188.76,267.69,191.12Zm33.73-76.79c-.56,7.53-2.07,28.35-10.78,30.8-4.16,1.15-8.46-2.22-15.4-7.7-10.63-8.4-9.25-12.58-16.95-16.94-9.58-5.44-18.09-2.61-20-7.7-.72-1.9,0-3.87,1.54-7.7a54.5,54.5,0,0,1,9.24-15.41,73.18,73.18,0,0,1,18.48-15.4C274,70.49,294.29,58.67,301.42,65c4,3.57.15,9.55,0,35.42C301.37,109.09,301.79,109.17,301.42,114.33Z"/></g></svg>