<svg id="Resurser" xmlns="http://www.w3.org/2000/svg" viewBox="0 0 837 602"><defs><style>.cls-1{fill:#032040;}.cls-2{fill:#1e90ff;}.cls-3{fill:#c8c8c8;}.cls-4{opacity:0.3;}</style></defs><g id="Car_Front" data-name="Car Front"><path class="cls-1" d="M80.47,508.44C79,515,77,524,80,526s87.42,1,92.71,0,2-17.12-.37-17.56S82,501.88,80.47,508.44Z"/><path class="cls-1" d="M667.09,508.44C665,509,662.24,526,666.62,526s88,1,92.71,0,1.59-12.12-.37-17.56S669.19,507.88,667.09,508.44Z"/><path class="cls-2" d="M779.5,348.88c-1-8.38,1.83-12.38-12.58-12.38s-10.76,10-31.09,10.5S581.1,332.81,574,347c-9,18-60,128-151.5,127S290,360,278,347c-8.61-9.33-152.65-4.51-170.57-5.51s-11.93-8-25.93-8-12,1-13.5,13.5S56.5,499.93,68,498.21,271.21,510.5,424.35,510.5,763.5,496.93,777,498.21,780.5,357.25,779.5,348.88ZM754,481.05c-4.46,5.56-216.54,18.45-332.54,18.45s-331-12-333.5-18.45S85.5,373.5,88,366s150.5-11.5,175.79,0S322.5,484.5,421.5,486.5s162-115,172.77-120.5S750.5,359.5,754,366,758.5,475.5,754,481.05Z"/><path class="cls-2" d="M778.48,244.31c0,10.19-.4,12.19-12.69,12.19s-12.07-11.39-30.18-11.7S586,263,558.48,246.8c-6.11-3.6-18.08-15-15.28-17.92S561.32,233,569.66,235s191.09-.5,189.46-11.5,10.63-171-5-163-223.61,6-327.61,7-321,1-334-7-5,159-6,169c-.94,9.37,180.58,15.88,202,4.19s0,0,0,0,17.6-9.58,18.52-7.13-8.79,16-12.6,20.25c-22.52,24.8-174.65.3-187.31,0s-15.67,9.7-25.67,9.7-12-1.4-12-9.7,0-190.7,0-200S70.3,34.5,83.4,34.5s16.25,13.29,31.17,13.64S270.12,58.5,428.31,57.5,711.78,48,730.64,48.26,749.13,34.5,764.32,34.5s13.14,4.6,14.16,12.3S778.46,234.13,778.48,244.31Z"/><path class="cls-3" d="M502.5,288.5c-6,6-66.18,15.93-83.59,15.47S349.5,291.5,345.5,287.5s-5-8,4-16,34.82-8.6,69.41-8.3,66.59,1.3,77.59,8.3S508.5,282.5,502.5,288.5Z"/><path class="cls-1" d="M421.5,335.19c-56,.31-115.82-51.41-111.41-55.55S364,309.58,424.76,309s112-33.26,115.85-29.4S477.5,334.88,421.5,335.19Z"/><path class="cls-1" d="M285.5,327.5c-6,0,53.27,131.86,141.13,133.93S571.5,327.5,565.5,327.5s-77,112.78-139,111.39S291.5,327.5,285.5,327.5Z"/><path class="cls-1" d="M159.5,331.5c0-4,81.22-19.87,116.61-47.94S358.5,104.15,428.5,103.83s103,152.67,149,182.67,124.37,41,124.18,45-25.61,1-36.89,1-68.29-8-102.29-34S479.77,121.85,428.63,121.68,322.5,262.5,289.5,294.5s-84.05,38-96,39S159.5,335.5,159.5,331.5Z"/><path class="cls-3" d="M171,259.14c-1,1.86,10.08,54.79,10.54,57.83S194,316,195,313s-9.89-47.72-9.95-51.86S172,257.28,171,259.14Z"/><path class="cls-3" d="M677.3,256.44c1,1.86-10.08,54.79-10.54,57.82s-12.46-1-13.46-4,9.89-47.72,10-51.86S676.3,254.58,677.3,256.44Z"/></g></svg>