<svg id="Resurser" xmlns="http://www.w3.org/2000/svg" viewBox="0 0 1027 459"><defs><style>.cls-1{fill:#c8c8c8;}.cls-2{fill:#1e90ff;}.cls-3{fill:#032040;}.cls-4{opacity:0.3;}</style></defs><g id="Car_Side" data-name="Car Side"><path class="cls-1" d="M656.28,382.28c4-.5-2.25-41.75,14.25-60.75s11.75-19.75-26.25-22.75-125,11.5-203.1,4-64.9-5-56.1,19-40.8,57-38.66,58.14,29.62-6.37,43.24-19.76,9.62-39.38,14.62-43.38,140,8,192,0,52.07-9.26,55-4.13-17,26.13-16,32.13S652.28,382.78,656.28,382.28Z"/><path class="cls-2" d="M302.78,386.78c36-7,314.75,14,346.5,9.52s.2,6.48-14,6.48-299.36-11.7-316.5-11.85S266.78,393.78,302.78,386.78Z"/><path class="cls-1" d="M203.58,308.47c6.7,4.31-.23-11.69-3.77-21.69s-9.53-45-9.53-62-9.62,19.15-7.62,43.38S196.89,304.17,203.58,308.47Z"/><path class="cls-1" d="M358,336.62c.6-.41-25.41-17.48-40.19-47.27-15.7-31.64-20.27-76.08-21.39-75.57-2.17,1,5,68.48,15.83,86.74S356.78,337.46,358,336.62Z"/><path class="cls-3" d="M251.31,394.3c-7,6.48,25.47-2.52,31-21.9s1-41.62-18.82-53.07-44.18-4.55-59.14,11.35-13,48.1,0,57.1-10-14,1-35,29.32-23.51,33.66-22.26,24.34,12.26,28.34,27.26S258.35,387.82,251.31,394.3Z"/><path class="cls-3" d="M686.81,406.15c-22.53-12.37-25.22-52.79-14.69-63.32s35.47-17,58.16-8.1,23.67,24.11,23.33,40-11.33,32.6-28.33,35.3-14,2.7.5-8.8,21.5-45.5,10.5-50.5-42-11-51,4-5,25.31-3,31.16S697.49,412,686.81,406.15Z"/><path class="cls-2" d="M175.28,209.12c-11.5,7.16,134.79-.15,156.89-19.24s48.33-67.83,3.32-85.46-69.85-25.3-134-38-65.24-20.17-65.71,36.08.44,53.78,0,70,7.55-1.77,7.55-1.77,2-36,3-56,0-34,14-34,75,8,115,27,83,42,32,70S186.78,202,175.28,209.12Z"/><path class="cls-2" d="M764.28,395c4-13.17,5-28.17.57-46.74s98.29-4,98.29-4,42.84,3,57.17,22.9,17,36.64,0,38.89-31,3.25-51,0,35-12.25,42-16.25,3-14-25-25-114-26-107-13-1.93,29.31-4.47,34.16S760.28,408.13,764.28,395Z"/><path class="cls-3" d="M329.78,283.28c-10.5,12.5,12.5-20.5,23.5-53.5s16-73,28-90,11.28-18.2,18.64-1.6,19.27,83.08,29.9,104.34,75.11,10,100.36,3.33,16.62-33.23,41.21-27.25S753.24,257.15,835,293s58.61,40.06,48.45,45.9c-6.78,3.89,6.26-4.77-2.19-16.19-4.23-5.71-10-7-34-18s-261.57-76.29-275.57-74.43-11.93,14.93-24.93,21.93-102,28-134.5-10.5-5-121.5-24-88.5-14.5,51-24,76.5S340.28,270.78,329.78,283.28Z"/><path class="cls-3" d="M967.28,426.78c-43-8-848-21-909-35s-2.5,6.5,12.25,10.75,885.75,30.25,906.75,33.25S1010.28,434.78,967.28,426.78Z"/></g></svg>