<svg id="Resurser" xmlns="http://www.w3.org/2000/svg" viewBox="0 0 887 491"><defs><style>.cls-1{fill:#c8c8c8;}.cls-2{fill:#032040;}.cls-3{fill:#1e90ff;}.cls-4{opacity:0.3;}</style></defs><g id="Car_Top" data-name="Car Top"><path class="cls-1" d="M457,285c-1,3-2,4-5,4s-4-2-4.3-4.91c-.23-2.15-.67-74.6-.36-77.51s1.3-4.91,4.3-4.91,4,1,5,4C457.38,207.9,458,282,457,285Z"/><path class="cls-2" d="M472.81,291.19c-.37,28-21.18,49.81-39.18,52.81s-48,2-65.22-9-23.65-24-27-36-2.91-27.58-3.05-50.88c-.16-25.25-.29-44.78,2.69-56.45s9.81-25,27-36,47.22-12,65.22-9,38.81,24.82,39.18,52.82c.34,28.34-5.81-2.82-9.81-11.82S446.27,162,435.45,157.86s-23.7-8.06-47.16-.19c-19,6.39-33.89,25.05-37,34-2.53,7.23-3.66,31.91-3.49,56,.17,22.52,1.48,44.54,3.85,51.32,3.13,8.95,18,27.62,37,34,23.46,7.88,36.35,4,47.16-.19S459,312,463,303,473.15,262.84,472.81,291.19Z"/><path class="cls-2" d="M583,374c-7,3-5,58.12,0,64.56s79,5.56,86,0S671,382,669,374,590,371,583,374Z"/><path class="cls-3" d="M259.52,410.1c3.9,0,292,.85,297.12,0s2.19-1.69-11.46-3.38c-6.78-.83-87.71,0-159.89-.2-73.15-.22-141.43-2.34-143.69-.64C237.1,409.26,255.62,410.1,259.52,410.1Z"/><path class="cls-3" d="M236,429c-7.58-2.18-12.26-165.5-11.65-191.25s4.52-174.14,11.29-176.08c9-2.56,9.49-3,9.72-8s-189.76,3-189.76,10,6,4,11,9c4.42,4.42,1.84,31.51,3.1,165.92S71.42,413.58,67,418c-5,5-11,2-11,9s190,15,189.77,10S245,431.57,236,429Zm-22-3c-14,0-132.5-.5-134.5-6.5s.16-73.14.83-180.82S77.48,76.16,79.14,71.17c2-6,120.5-6.5,134.5-6.5C225.56,64.67,215,68,217,239S225.92,426,214,426Z"/><path class="cls-2" d="M721,308c-46,6.09-109,11-145,21s-58,32-80,49-95.56,23-134.28,16S312,372,293,336s-57-39-54-41,14-2.86,29,4S287.91,308.91,302,327,320,377,360,383s51,6,96-4,66.23-53.46,119.86-64c30.48-6,85.14-9.22,131.14-16.61,45.62-7.33,86.22-16.11,88.11-53.75s-42.91-45-88.47-52.36c-46-7.39-100.66-10.62-131.14-16.61-53.63-10.54-74.86-54-119.86-64s-56-10-96-4-44,38-58.05,56.05-19,21.09-33.95,27.95-26,6-29,4,35-5,54-41,30-51,68.72-58,112.28-1,134.28,16,44,39,80,49,99,14.91,145,21c45.66,6,90.62,15.85,89,62.09S767,301.91,721,308Z"/><path class="cls-1" d="M233.64,123.05c2-2.38,60,8.62,62,10.62s-.3,4.76-2.65,6.38-57.91-7.9-59.35-9.64A5.88,5.88,0,0,1,233.64,123.05Z"/><path class="cls-2" d="M582.64,116.67c-7-3-5-58.12,0-64.56s79-5.56,86,0,2,56.56,0,64.56S589.64,119.67,582.64,116.67Z"/><path class="cls-3" d="M842,432c0,9.51-144.79,15.91-151.89,11.46s-3.9-122.46,0-125.46,10.43-4,9.66,1-12.23,111.86,0,116S795,426.73,810,426.87c11.71.1,2.34-141,6.18-154.87,3.75-13.56,3.37-39.84-.36-53.33-3.84-13.85,5.53-155-6.18-154.86-15,.13-98-12.27-110.22-8.14s-.77,111,0,116-5.77,4-9.66,1-7.11-121,0-125.45,151.89,1.94,151.89,11.45-10,5-12.79,9.75c-2.24,3.8.41,176.46.41,176.46-.39,30.69-2.31,173.53,0,177.38C832,427,842,422.49,842,432Z"/><path class="cls-3" d="M256.84,81.7c3.9,0,292-.84,297.11,0s2.2,1.69-11.45,3.38c-6.78.84-87.71,0-159.89.21-73.15.22-141.43,2.34-143.7.64C234.41,82.55,252.94,81.7,256.84,81.7Z"/><path class="cls-1" d="M234,367.38c2,2.38,60-8.62,62-10.62s-.3-4.76-2.65-6.38S235.44,358.28,234,360A5.88,5.88,0,0,0,234,367.38Z"/></g></svg>